<?xml version="1.0" encoding="utf-8"?>
<!-- Generator: Adobe Illustrator 26.0.1, SVG Export Plug-In . SVG Version: 6.00 Build 0)  -->
<svg version="1.1" id="Слой_1" xmlns="http://www.w3.org/2000/svg" xmlns:xlink="http://www.w3.org/1999/xlink" x="0px" y="0px"
	 viewBox="0 0 250 100" style="enable-background:new 0 0 250 100;" xml:space="preserve">
<style type="text/css">
	.st0{fill:#08339F;}
	.st1{fill:#FFFFFF;}
</style>
<g>
	<rect class="st0" width="250" height="100"/>
</g>
<g>
	<g>
		<path class="st1" d="M14.73,36.29h8.03c4.87,0,8.65,1.34,8.65,5.82c0,2.1-1.18,4.34-3.09,5.06v0.14c2.4,0.62,4.25,2.39,4.25,5.52
			c0,4.77-4.04,6.91-9.14,6.91h-8.7V36.29z M22.51,45.69c2.57,0,3.71-1.09,3.71-2.79c0-1.81-1.2-2.51-3.67-2.51h-2.52v5.3H22.51z
			 M23,55.66c2.89,0,4.39-1.03,4.39-3.16c0-2.06-1.47-2.9-4.39-2.9h-2.96v6.06H23z"/>
		<path class="st1" d="M35.25,54.8c0-3.76,2.99-5.8,10.06-6.54c-0.11-1.56-0.88-2.58-2.82-2.58c-1.5,0-2.99,0.63-4.73,1.61
			l-1.88-3.47c2.27-1.38,4.82-2.35,7.63-2.35c4.57,0,7.09,2.61,7.09,8.08v10.21h-4.32l-0.38-1.83h-0.13
			c-1.5,1.32-3.19,2.26-5.2,2.26C37.31,60.19,35.25,57.81,35.25,54.8z M45.3,54.57v-3.12c-3.76,0.51-4.99,1.58-4.99,2.93
			c0,1.15,0.79,1.71,2.05,1.71C43.56,56.1,44.37,55.5,45.3,54.57z"/>
		<path class="st1" d="M55.04,41.9h6.04l2.26,6.13c0.46,1.45,0.87,2.72,1.27,4h0.14c0.41-1.27,0.86-2.55,1.28-4l2.09-6.13h6.01
			v17.86h-4.7v-4.58c0-1.91,0.37-5.69,0.56-7.71h-0.14c-0.5,1.58-1.25,3.49-1.75,5l-2.07,5.74h-2.88l-2.14-5.74
			c-0.5-1.51-1.25-3.48-1.75-5h-0.14c0.19,2.01,0.56,5.79,0.56,7.71v4.58h-4.64V41.9z"/>
		<path class="st1" d="M89.32,66.52h-4.73l-0.45-7.91v-3.3h23.17v3.3l-0.45,7.91h-4.73v-6.77h-12.8V66.52z M99.15,40.74H94.6
			c-0.51,2.83-0.73,4.26-1.27,7.14c-1.3,6.76-3.5,10.62-7.3,10.72l-0.82-3.29c1.05-0.37,2.25-2.44,3.36-8.13
			c0.79-4.11,1.17-6.41,1.95-10.88h13.93v21.85h-5.3V40.74z"/>
		<path class="st1" d="M109.08,50.83c0-5.94,4.18-9.37,8.7-9.37s8.7,3.43,8.7,9.37c0,5.92-4.18,9.35-8.7,9.35
			S109.08,56.76,109.08,50.83z M121.06,50.83c0-3.09-1.09-5.1-3.28-5.1s-3.28,2.01-3.28,5.1c0,3.09,1.09,5.08,3.28,5.08
			S121.06,53.92,121.06,50.83z"/>
		<path class="st1" d="M129.06,50.83c0-5.94,4.37-9.37,9.3-9.37c2.2,0,3.89,0.78,5.22,1.92l-2.5,3.4c-0.86-0.72-1.57-1.05-2.42-1.05
			c-2.54,0-4.18,2.01-4.18,5.1c0,3.09,1.7,5.08,4,5.08c1.17,0,2.29-0.58,3.22-1.32l2.07,3.46c-1.74,1.53-3.95,2.13-5.89,2.13
			C132.91,60.19,129.06,56.76,129.06,50.83z"/>
		<path class="st1" d="M150.79,46.05h-5.27V41.9h15.83v4.15h-5.27v13.71h-5.29V46.05z"/>
		<path class="st1" d="M163.8,54.8c0-3.76,2.99-5.8,10.06-6.54c-0.11-1.56-0.88-2.58-2.82-2.58c-1.5,0-2.99,0.63-4.72,1.61
			l-1.88-3.47c2.27-1.38,4.82-2.35,7.63-2.35c4.57,0,7.09,2.61,7.09,8.08v10.21h-4.32l-0.38-1.83h-0.13
			c-1.5,1.32-3.19,2.26-5.2,2.26C165.87,60.19,163.8,57.81,163.8,54.8z M173.86,54.57v-3.12c-3.76,0.51-4.99,1.58-4.99,2.93
			c0,1.15,0.79,1.71,2.05,1.71C172.12,56.1,172.92,55.5,173.86,54.57z"/>
		<path class="st1" d="M183.6,41.9h7.59c4,0,7.2,1.15,7.2,4.72c0,1.53-0.88,3.1-2.99,3.69v0.14c2.21,0.54,3.67,1.77,3.67,4.18
			c0,3.67-3.37,5.13-7.43,5.13h-8.03V41.9z M190.86,48.88c1.75,0,2.46-0.64,2.46-1.72c0-1.08-0.68-1.76-2.42-1.76h-2.12v3.48H190.86
			z M191.32,56.26c1.88,0,2.6-0.83,2.6-2c0-1.06-0.79-1.89-2.65-1.89h-2.51v3.88H191.32z"/>
		<path class="st1" d="M202.6,41.9h5.29v6.58h4.54l7.25,11.28h-5.79l-4.11-7.13h-1.89v7.13h-5.29V41.9z M208.83,50.39l2.46-5.18
			c1.41-3.04,3.09-3.74,5.64-3.74c0.52,0,0.99,0.07,1.43,0.26l-0.82,4.88c-0.22-0.07-0.43-0.13-0.68-0.13
			c-0.88,0-1.57,0.25-2.26,1.81l-1.38,3.07L208.83,50.39z"/>
		<path class="st1" d="M221.44,54.8c0-3.76,2.99-5.8,10.06-6.54c-0.11-1.56-0.88-2.58-2.82-2.58c-1.5,0-2.99,0.63-4.72,1.61
			l-1.88-3.47c2.27-1.38,4.82-2.35,7.63-2.35c4.57,0,7.09,2.61,7.09,8.08v10.21h-4.32l-0.38-1.83h-0.13
			c-1.5,1.32-3.19,2.26-5.2,2.26C223.5,60.19,221.44,57.81,221.44,54.8z M231.49,54.57v-3.12c-3.76,0.51-4.99,1.58-4.99,2.93
			c0,1.15,0.79,1.71,2.05,1.71C229.75,56.1,230.55,55.5,231.49,54.57z"/>
	</g>
</g>
</svg>
