<?xml version="1.0" encoding="utf-8"?>
<!-- Generator: Adobe Illustrator 26.0.1, SVG Export Plug-In . SVG Version: 6.00 Build 0)  -->
<svg version="1.1" id="Слой_1" xmlns="http://www.w3.org/2000/svg" xmlns:xlink="http://www.w3.org/1999/xlink" x="0px" y="0px"
	 viewBox="0 0 250 100" style="enable-background:new 0 0 250 100;" xml:space="preserve">
<style type="text/css">
	.st0{fill:#9AC3E3;}
	.st1{fill:#FFFFFF;}
</style>
<g id="XMLID_00000170997239598304523380000017851492764569204914_">
	<g>
		<rect class="st0" width="250" height="100"/>
	</g>
	<g>
	</g>
</g>
<g>
	<g>
		<path class="st1" d="M40.22,39.31h6.43c3.9,0,6.92,1.07,6.92,4.66c0,1.68-0.94,3.48-2.47,4.05v0.12c1.92,0.5,3.4,1.91,3.4,4.42
			c0,3.82-3.23,5.53-7.31,5.53h-6.96V39.31z M46.45,46.83c2.06,0,2.97-0.87,2.97-2.24c0-1.45-0.96-2.01-2.94-2.01h-2.02v4.25H46.45z
			 M46.83,54.81c2.31,0,3.51-0.82,3.51-2.53c0-1.65-1.18-2.32-3.51-2.32h-2.37v4.85H46.83z"/>
		<path class="st1" d="M56.64,54.12c0-3.01,2.4-4.64,8.05-5.24c-0.08-1.25-0.71-2.07-2.26-2.07c-1.2,0-2.4,0.5-3.78,1.29l-1.51-2.78
			c1.81-1.11,3.86-1.88,6.1-1.88c3.65,0,5.68,2.09,5.68,6.47v8.17h-3.46l-0.31-1.46h-0.1c-1.2,1.06-2.55,1.81-4.16,1.81
			C58.29,58.43,56.64,56.53,56.64,54.12z M64.69,53.93v-2.5c-3.01,0.41-3.99,1.27-3.99,2.35c0,0.92,0.63,1.37,1.64,1.37
			C63.29,55.15,63.93,54.68,64.69,53.93z"/>
		<path class="st1" d="M72.48,43.79h4.83l1.81,4.9c0.37,1.16,0.69,2.18,1.01,3.2h0.12c0.33-1.02,0.69-2.04,1.02-3.2l1.68-4.9h4.81
			v14.29H84v-3.66c0-1.53,0.29-4.56,0.45-6.17h-0.12c-0.4,1.26-1,2.79-1.4,4l-1.65,4.59h-2.31l-1.71-4.59c-0.4-1.21-1-2.78-1.4-4
			h-0.12c0.15,1.61,0.45,4.64,0.45,6.17v3.66h-3.71V43.79z"/>
		<path class="st1" d="M99.91,63.5h-3.79l-0.36-6.33v-2.65h18.55v2.65l-0.36,6.33h-3.79v-5.42H99.91V63.5z M107.77,42.87h-3.64
			c-0.41,2.27-0.58,3.41-1.02,5.71c-1.04,5.41-2.8,8.5-5.84,8.58l-0.65-2.63c0.84-0.3,1.8-1.96,2.69-6.51
			c0.63-3.29,0.94-5.13,1.56-8.71h11.15V56.8h-4.25V42.87z"/>
		<path class="st1" d="M115.72,50.94c0-4.75,3.35-7.5,6.96-7.5c3.62,0,6.96,2.75,6.96,7.5c0,4.74-3.34,7.49-6.96,7.49
			C119.07,58.43,115.72,55.68,115.72,50.94z M125.31,50.94c0-2.47-0.87-4.08-2.62-4.08c-1.75,0-2.62,1.61-2.62,4.08
			c0,2.47,0.87,4.07,2.62,4.07C124.44,55.01,125.31,53.42,125.31,50.94z"/>
		<path class="st1" d="M131.71,50.94c0-4.75,3.5-7.5,7.45-7.5c1.76,0,3.11,0.63,4.18,1.54l-2,2.72c-0.68-0.58-1.26-0.84-1.94-0.84
			c-2.04,0-3.34,1.61-3.34,4.08c0,2.47,1.36,4.07,3.2,4.07c0.94,0,1.84-0.46,2.58-1.05l1.66,2.77c-1.39,1.23-3.16,1.7-4.71,1.7
			C134.79,58.43,131.71,55.68,131.71,50.94z"/>
		<path class="st1" d="M149.1,47.11h-4.22v-3.32h12.67v3.32h-4.22v10.97h-4.23V47.11z"/>
		<path class="st1" d="M159.51,54.12c0-3.01,2.4-4.64,8.05-5.24c-0.08-1.25-0.71-2.07-2.26-2.07c-1.2,0-2.4,0.5-3.78,1.29l-1.5-2.78
			c1.81-1.11,3.86-1.88,6.1-1.88c3.65,0,5.68,2.09,5.68,6.47v8.17h-3.46l-0.3-1.46h-0.11c-1.2,1.06-2.55,1.81-4.16,1.81
			C161.17,58.43,159.51,56.53,159.51,54.12z M167.56,53.93v-2.5c-3.01,0.41-3.99,1.27-3.99,2.35c0,0.92,0.63,1.37,1.64,1.37
			C166.17,55.15,166.81,54.68,167.56,53.93z"/>
		<path class="st1" d="M175.35,43.79h6.07c3.2,0,5.76,0.92,5.76,3.77c0,1.22-0.7,2.48-2.39,2.95v0.11c1.77,0.44,2.93,1.42,2.93,3.35
			c0,2.93-2.69,4.11-5.95,4.11h-6.43V43.79z M181.17,49.38c1.4,0,1.97-0.51,1.97-1.37c0-0.86-0.54-1.41-1.94-1.41h-1.7v2.78H181.17z
			 M181.54,55.28c1.5,0,2.08-0.66,2.08-1.6c0-0.85-0.63-1.51-2.12-1.51h-2v3.11H181.54z"/>
		<path class="st1" d="M190.57,43.79h4.24v5.26h3.63l5.8,9.03h-4.63l-3.29-5.71h-1.51v5.71h-4.24V43.79z M195.55,50.58l1.97-4.14
			c1.13-2.43,2.47-3,4.52-3c0.42,0,0.79,0.06,1.15,0.21l-0.66,3.9c-0.17-0.06-0.34-0.1-0.54-0.1c-0.7,0-1.26,0.2-1.81,1.45
			l-1.1,2.46L195.55,50.58z"/>
		<path class="st1" d="M205.64,54.12c0-3.01,2.4-4.64,8.05-5.24c-0.08-1.25-0.71-2.07-2.26-2.07c-1.2,0-2.4,0.5-3.78,1.29l-1.5-2.78
			c1.81-1.11,3.86-1.88,6.1-1.88c3.65,0,5.68,2.09,5.68,6.47v8.17h-3.46l-0.3-1.46h-0.11c-1.2,1.06-2.55,1.81-4.16,1.81
			C207.29,58.43,205.64,56.53,205.64,54.12z M213.69,53.93v-2.5c-3.01,0.41-3.99,1.27-3.99,2.35c0,0.92,0.63,1.37,1.64,1.37
			C212.29,55.15,212.94,54.68,213.69,53.93z"/>
	</g>
</g>
</svg>
