<?xml version="1.0" encoding="utf-8"?>
<!-- Generator: Adobe Illustrator 26.0.1, SVG Export Plug-In . SVG Version: 6.00 Build 0)  -->
<svg version="1.1" id="Слой_1" xmlns="http://www.w3.org/2000/svg" xmlns:xlink="http://www.w3.org/1999/xlink" x="0px" y="0px"
	 viewBox="0 0 250 100" style="enable-background:new 0 0 250 100;" xml:space="preserve">
<style type="text/css">
	.st0{fill:#08339F;}
	.st1{fill:#FFFFFF;}
</style>
<g>
	<rect class="st0" width="250" height="100"/>
</g>
<g>
	<path class="st1" d="M20.64,36.97V36.9c0-0.25-0.25-0.55-0.76-0.91c-0.5-0.35-1.07-0.53-1.7-0.53c-1.84,0-3.49,0.21-4.95,0.62
		c-0.42,0.11-0.7,0.22-0.82,0.33s-0.44,1.21-0.97,3.3c-0.52,2.09-0.95,4.32-1.27,6.71l-0.12,0.83c-0.48,2.93-0.73,4.91-0.73,5.95
		c0,0.79-0.21,1.39-0.64,1.79C8.27,55.4,7.71,55.61,7,55.61c-0.5,0-0.92-0.25-1.24-0.74c-0.32-0.49-0.48-1.09-0.48-1.8
		c0-0.23,0.1-0.79,0.3-1.68c0.32-1.36,0.84-3.79,1.56-7.28c0.72-3.49,1.07-5.28,1.07-5.36c0-0.52-0.14-0.79-0.42-0.79
		c-0.46,0-0.87-0.15-1.2-0.46c-0.34-0.31-0.51-0.66-0.51-1.07c0-1.11,1.45-2.08,4.36-2.9s5.82-1.23,8.73-1.23
		c1.27,0,2.51,0.45,3.72,1.36c1.21,0.91,1.81,1.93,1.81,3.06c0,0.66-0.4,1.57-1.19,2.73c-0.79,1.17-1.81,2.3-3.07,3.4
		c2.84,0.61,4.25,2.51,4.25,5.72c0,1.37-1.14,3.05-3.42,5.03c-2.28,1.98-4.92,2.97-7.92,2.97c-0.79,0-1.43-0.13-1.92-0.38
		c-0.49-0.25-0.73-0.59-0.73-1.01c0-0.33,0.12-0.69,0.36-1.07s0.53-0.66,0.85-0.84c0.33-0.18,0.85-0.29,1.57-0.34
		c2.3-0.15,4.06-0.75,5.28-1.8c1.22-1.05,1.83-1.91,1.83-2.59c0-0.72-0.29-1.44-0.85-2.18c-0.57-0.74-1.25-1.11-2.04-1.11
		c-0.08,0-0.25,0.05-0.51,0.15c-1.41,0.54-2.26,0.82-2.54,0.82c-1,0-1.66-0.15-1.97-0.45c-0.31-0.3-0.47-0.75-0.47-1.35
		c0-0.43,0.46-0.86,1.38-1.27c1.35-0.6,2.44-1.15,3.27-1.66c0.83-0.51,1.59-1.18,2.3-2C19.88,38.66,20.37,37.82,20.64,36.97z"/>
	<path class="st1" d="M38.08,50.45c-2.63,3.48-5.17,5.22-7.6,5.22c-0.91,0-1.69-0.36-2.35-1.08c-0.66-0.72-0.98-1.63-0.98-2.74
		c0-2.67,1.19-5.52,3.57-8.54c2.38-3.02,4.78-4.53,7.21-4.53c1.23,0,2.04,0.62,2.42,1.86c1.16,0,1.74,0.44,1.74,1.33
		c0,0.42-0.11,1.19-0.33,2.3c-0.4,2.08-0.61,3.74-0.61,4.98c0,1.29,0.09,2.2,0.27,2.72c0.18,0.52,0.3,0.87,0.39,1.03
		c0.08,0.16,0.32,0.33,0.73,0.51c0.4,0.19,0.61,0.46,0.61,0.8c0,0.51-0.26,0.94-0.78,1.29c-0.52,0.34-1.06,0.51-1.63,0.51
		c-0.95,0-1.63-0.47-2.05-1.42c-0.42-0.95-0.63-2.06-0.63-3.33v-0.45C38.05,50.76,38.06,50.61,38.08,50.45z M37.26,42.02
		c-1.02,0-2.34,1.13-3.97,3.38c-1.63,2.26-2.44,4.17-2.44,5.74c0,0.83,0.17,1.24,0.51,1.24c1.19,0,2.66-1.06,4.4-3.17
		c1.74-2.11,2.61-3.96,2.61-5.55c0-0.5-0.11-0.91-0.34-1.2C37.8,42.16,37.54,42.02,37.26,42.02z"/>
	<path class="st1" d="M45.36,54.41c0.89-0.89,1.92-2.72,3.1-5.49c0.16-0.37,0.34-0.76,0.54-1.17c0.19-0.4,0.36-0.8,0.5-1.2
		c0.08-0.2,0.17-0.41,0.27-0.62c0.36-0.79,0.73-1.8,1.09-3.04s0.59-2.12,0.68-2.63c0.15-0.87,0.81-1.3,1.97-1.3
		c0.75,0,1.21,0.13,1.38,0.39c0.18,0.26,0.37,0.58,0.57,0.95c0.2,0.37,0.44,1.35,0.72,2.93c0.28,1.58,0.5,2.92,0.66,4.02
		c0.2,1.31,0.54,2.68,1.03,4.1c1.24-2.87,2.35-5.29,3.32-7.29c0.97-1.99,1.76-3.47,2.35-4.44c0.59-0.97,1.01-1.57,1.27-1.79
		c0.26-0.23,0.52-0.34,0.78-0.34c0.48,0,1.01,0.14,1.57,0.42c0.56,0.28,0.89,0.57,0.98,0.85c0.1,1.36,0.21,3.92,0.33,7.66
		c0.05,1.34,0.14,2.54,0.26,3.59s0.34,1.92,0.65,2.62c0.43,0.87,0.65,1.61,0.65,2.23c0,0.49-0.2,0.9-0.59,1.23s-0.95,0.48-1.68,0.48
		c-1.06,0-1.76-0.72-2.1-2.16c-0.34-1.44-0.51-4-0.51-7.67c0-0.54,0.05-1.58,0.15-3.12l0.05-0.97c-1.39,2.67-2.57,5.07-3.53,7.19
		c-1.31,2.9-2.21,4.65-2.69,5.27s-1.01,0.92-1.59,0.92h-0.24c-0.74,0-1.3-0.19-1.68-0.56c-0.38-0.37-0.8-1.48-1.26-3.32
		c-0.45-1.84-0.79-3.63-1.01-5.35c-0.1-0.71-0.19-1.17-0.27-1.41c-0.4,1.45-0.66,2.32-0.77,2.59c-0.02,0.04-0.06,0.14-0.11,0.29
		c-0.3,0.93-0.77,2.11-1.4,3.53c-0.63,1.43-1.21,2.55-1.75,3.36c-0.54,0.81-0.94,1.31-1.23,1.5c-0.28,0.19-0.62,0.28-1,0.28
		c-0.41,0-0.82-0.16-1.23-0.48c-0.4-0.32-0.61-0.68-0.61-1.08c0-0.36,0.11-0.67,0.32-0.92L45.36,54.41z"/>
	<path class="st1" d="M91.92,46.57v0.02c0.11-0.21,0.22-0.41,0.33-0.59c0.37-0.63,1.72-3.4,4.03-8.31c1.08-2.31,1.73-3.66,1.96-4.04
		c0.23-0.38,0.6-0.72,1.13-1.01c0.52-0.29,1.05-0.44,1.57-0.46c1.06,0,1.74,0.23,2.04,0.68s0.65,1.84,1.07,4.16
		c0.15,0.88,0.31,1.62,0.47,2.22c0.13,0.53,0.21,0.86,0.23,1.01c0.57,2.59,1.23,5.03,2,7.3s1.36,3.67,1.77,4.21
		c0.29-0.04,0.63-0.06,1.01-0.06c0.72,0,1.2,0.11,1.45,0.33s0.37,0.67,0.37,1.33c0,1.44-0.11,3.57-0.32,6.39
		c-0.08,0.99-0.12,1.53-0.12,1.62c0,0.38-0.19,0.75-0.56,1.11c-0.37,0.36-0.85,0.54-1.44,0.54c-0.25,0-0.51-0.08-0.78-0.25
		c-0.27-0.17-0.46-0.32-0.58-0.47c-0.12-0.15-0.17-0.43-0.17-0.84c0-0.4,0.07-1.22,0.2-2.45c0.11-1.13,0.17-1.85,0.17-2.15
		c0-1.15-0.11-1.73-0.33-1.73c-1.98,0-7.68,0.43-17.12,1.29c-0.92,0.07-1.4,0.17-1.44,0.3c-0.46,1.38-0.7,2.72-0.71,4.03v0.79
		c0,1.25-0.6,1.94-1.79,2.07l-0.15,0.02c-0.47,0.05-0.87-0.06-1.18-0.34c-0.31-0.28-0.47-0.69-0.47-1.25c0-0.62,0.17-2.22,0.5-4.81
		c0.06-0.49,0.1-0.95,0.12-1.36c0.02-0.62,0.15-1.11,0.38-1.49c0.23-0.38,0.71-0.63,1.42-0.75c0.53-0.13,0.99-0.48,1.36-1.06
		c0.09-0.14,0.19-0.28,0.29-0.42C89.14,51.33,90.24,49.48,91.92,46.57z M92.36,53.19l11.78-0.98c-0.29-1.19-0.68-2.47-1.15-3.85
		c-0.47-1.38-0.8-2.37-0.97-2.97c-0.64-2.27-1.09-4.18-1.38-5.72l-0.44-2.12c-0.15,0.34-1,2.09-2.55,5.25
		c-1.55,3.15-2.67,5.36-3.35,6.61c-1.28,2.31-1.93,3.56-1.95,3.75L92.36,53.19z"/>
	<path class="st1" d="M128.97,47.81c-0.68,2.36-1.96,4.35-3.85,5.97c-1.89,1.62-3.78,2.43-5.67,2.43c-1.49,0-2.72-0.55-3.69-1.64
		s-1.45-2.44-1.45-4.03c0-2.6,0.89-5.17,2.66-7.69c1.78-2.52,3.93-3.78,6.46-3.78c1.73,0,3.12,0.64,4.19,1.92
		c1.07,1.28,1.6,2.8,1.6,4.56c0,0.77-0.09,1.52-0.26,2.26V47.81z M121.1,43.03c-0.71,0.63-1.4,1.63-2.07,3
		c-0.68,1.37-1.01,2.75-1.01,4.13c0,0.84,0.15,1.53,0.46,2.07c0.31,0.54,0.71,0.82,1.22,0.82c1.25,0,2.55-0.74,3.9-2.22
		c1.35-1.48,2.03-3.15,2.03-5c0-1.04-0.22-1.89-0.66-2.57c-0.44-0.67-1.05-1.01-1.84-1.01c-0.75,0-1.42,0.26-2.01,0.77H121.1z"/>
	<path class="st1" d="M136.6,56.32c-1.67,0-2.93-0.45-3.8-1.36c-0.87-0.91-1.3-2.17-1.3-3.78c0-2.54,1.04-5.29,3.1-8.25
		s4.1-4.44,6.08-4.44c0.96,0,1.78,0.48,2.45,1.43c0.68,0.95,1.01,1.95,1.01,2.97c0,0.97-0.18,1.62-0.54,1.96
		c-0.36,0.34-0.7,0.51-1.04,0.51c-0.98,0-1.55-0.68-1.71-2.03c-0.12-0.99-0.37-1.48-0.74-1.48c-0.79,0-1.83,1.12-3.12,3.36
		s-1.94,4.2-1.94,5.89c0,1.36,0.74,2.04,2.21,2.04c1.62,0,3.26-0.58,4.92-1.73c0.78-0.55,1.39-0.83,1.85-0.83
		c0.55,0,0.83,0.28,0.83,0.83c0,0.78-0.89,1.79-2.67,3.04S138.56,56.32,136.6,56.32z"/>
	<path class="st1" d="M151.8,54.53c-0.12,1.04-0.7,1.56-1.74,1.56c-1.32,0-1.98-0.95-1.98-2.86c0-3.09,0.17-5.73,0.5-7.92
		c0.26-1.71,0.39-3.38,0.39-5.03c0-0.39,0.13-0.72,0.38-0.99c0.25-0.27,0.61-0.4,1.06-0.4c1.51,0,2.27,0.92,2.27,2.75
		c0,0.6-0.27,2.11-0.8,4.56c-0.32,1.45-0.48,2.51-0.48,3.16c2.89-6.34,5.49-9.51,7.81-9.51c0.94,0,1.69,0.37,2.26,1.12
		c0.57,0.75,0.87,2.4,0.88,4.96c0.01,2.34,0.13,3.51,0.36,3.51c0.18,0,0.81-1.14,1.89-3.41c1.2-2.51,2.23-4.17,3.08-4.98
		c0.85-0.81,1.75-1.21,2.69-1.21c1.12,0,1.93,0.48,2.44,1.45c0.51,0.96,0.86,2.59,1.06,4.88c0.15,1.82,0.36,3.19,0.61,4.12
		c0.26,0.93,0.7,1.54,1.32,1.85c0.5,0.24,0.76,0.61,0.76,1.09c0,0.43-0.29,0.87-0.86,1.31c-0.58,0.44-1.16,0.66-1.76,0.66
		c-1.03,0-1.84-0.51-2.42-1.52c-0.58-1.01-0.97-3.05-1.17-6.11c-0.11-1.47-0.23-2.45-0.36-2.93c-0.13-0.48-0.32-0.72-0.57-0.72
		c-0.22,0-0.54,0.36-0.97,1.08c-0.42,0.72-1.16,2.16-2.2,4.31c-0.92,1.94-1.71,3.29-2.37,4.06c-0.66,0.77-1.37,1.15-2.13,1.15
		c-0.59,0-1.17-0.25-1.76-0.76c-0.59-0.5-0.91-2.34-0.96-5.49c-0.05-2.82-0.23-4.22-0.54-4.22c-0.42,0-1.44,1.25-3.06,3.75
		C153.83,50.32,152.62,52.56,151.8,54.53z"/>
	<path class="st1" d="M189.07,50.45c-2.63,3.48-5.17,5.22-7.6,5.22c-0.91,0-1.69-0.36-2.35-1.08c-0.66-0.72-0.98-1.63-0.98-2.74
		c0-2.67,1.19-5.52,3.57-8.54c2.38-3.02,4.78-4.53,7.21-4.53c1.23,0,2.04,0.62,2.42,1.86c1.16,0,1.74,0.44,1.74,1.33
		c0,0.42-0.11,1.19-0.33,2.3c-0.4,2.08-0.61,3.74-0.61,4.98c0,1.29,0.09,2.2,0.27,2.72c0.18,0.52,0.3,0.87,0.38,1.03
		c0.08,0.16,0.32,0.33,0.73,0.51c0.4,0.19,0.61,0.46,0.61,0.8c0,0.51-0.26,0.94-0.78,1.29s-1.06,0.51-1.63,0.51
		c-0.95,0-1.63-0.47-2.05-1.42c-0.42-0.95-0.63-2.06-0.63-3.33v-0.45C189.04,50.76,189.04,50.61,189.07,50.45z M188.25,42.02
		c-1.02,0-2.34,1.13-3.97,3.38c-1.63,2.26-2.45,4.17-2.45,5.74c0,0.83,0.17,1.24,0.52,1.24c1.19,0,2.66-1.06,4.4-3.17
		s2.61-3.96,2.61-5.55c0-0.5-0.11-0.91-0.34-1.2C188.79,42.16,188.53,42.02,188.25,42.02z"/>
	<path class="st1" d="M207.22,40.08c0.99,0.5,1.75,1.33,2.29,2.49c0.54,1.16,0.81,2.5,0.81,4.02c0,2.62-0.84,4.91-2.53,6.86
		c-1.69,1.95-3.51,2.93-5.48,2.93c-1.8,0-3.21-0.68-4.23-2.04c-1.02-1.36-1.54-3.38-1.54-6.04c0-3.14,0.56-6.31,1.69-9.51
		c1.13-3.2,2.5-5.6,4.13-7.21c1.63-1.61,3.34-2.42,5.12-2.42c1.17,0,2.1,0.37,2.8,1.1c0.7,0.73,1.04,1.73,1.04,2.99
		c0,0.91-0.38,1.99-1.15,3.25C209.42,37.75,208.43,38.95,207.22,40.08z M206.5,46.89c0-1.17-0.17-2.17-0.51-2.98
		c-0.34-0.82-0.84-1.28-1.48-1.38c-0.03,0-0.23,0.14-0.59,0.41l-3.57,2.68c-0.12,0.85-0.18,1.72-0.18,2.62
		c0,3.26,0.8,4.89,2.41,4.89c1.13,0,2.07-0.64,2.82-1.91c0.75-1.27,1.12-2.67,1.12-4.21V46.89z M201.04,41.65
		c3.16-2.56,5.07-4.38,5.74-5.46c0.67-1.08,1.01-1.94,1.01-2.57c0-0.85-0.26-1.27-0.79-1.27c-0.96,0-2,0.85-3.11,2.54
		S201.83,38.84,201.04,41.65z"/>
	<path class="st1" d="M220.78,47.77c0.45,0.11,0.88,0.31,1.27,0.59c0.39,0.28,0.86,0.8,1.41,1.54c1.05,1.45,1.88,2.41,2.48,2.86
		s1.27,0.68,1.98,0.68c0.75,0,1.12,0.23,1.12,0.7c0,0.44-0.26,0.89-0.77,1.35c-0.52,0.45-1.33,0.68-2.44,0.68
		c-1.71,0-3.44-1.41-5.19-4.22c-1.02-1.66-1.87-2.48-2.56-2.48c-0.09,0-0.34,0.07-0.73,0.2c-0.4,0.13-0.66,0.25-0.78,0.36
		c-0.12,0.11-0.22,0.75-0.3,1.93l-0.17,2.79c-0.02,0.45-0.21,0.84-0.56,1.17s-0.79,0.49-1.32,0.49c-0.55,0-0.99-0.15-1.3-0.46
		s-0.47-0.62-0.47-0.93c0-0.38,0.13-1.21,0.38-2.47c0.61-3.18,1.08-7.06,1.44-11.66c0.04-0.58,0.28-1.12,0.73-1.6
		s0.96-0.73,1.56-0.73c0.41,0,0.76,0.18,1.03,0.53c0.27,0.35,0.41,0.76,0.41,1.23c0,0.36-0.06,0.73-0.18,1.11
		c-0.15,0.43-0.37,1.32-0.64,2.66s-0.45,2.37-0.51,3.07c1.2-0.36,2.13-0.87,2.8-1.51c0.67-0.65,1.49-1.68,2.48-3.1
		c0.83-1.17,1.61-2.04,2.33-2.6c0.73-0.56,1.52-0.84,2.39-0.84c0.47,0,0.92,0.2,1.32,0.6c0.41,0.4,0.61,0.82,0.61,1.26
		c0,0.37-0.11,0.65-0.34,0.84s-0.62,0.37-1.19,0.54c-0.72,0.21-1.48,0.79-2.3,1.73C223.08,46.01,221.75,47.24,220.78,47.77z"/>
	<path class="st1" d="M241.27,50.45c-2.63,3.48-5.17,5.22-7.6,5.22c-0.91,0-1.69-0.36-2.35-1.08c-0.66-0.72-0.98-1.63-0.98-2.74
		c0-2.67,1.19-5.52,3.57-8.54c2.38-3.02,4.78-4.53,7.21-4.53c1.23,0,2.04,0.62,2.42,1.86c1.16,0,1.74,0.44,1.74,1.33
		c0,0.42-0.11,1.19-0.33,2.3c-0.4,2.08-0.61,3.74-0.61,4.98c0,1.29,0.09,2.2,0.27,2.72c0.18,0.52,0.3,0.87,0.38,1.03
		c0.08,0.16,0.32,0.33,0.73,0.51c0.4,0.19,0.61,0.46,0.61,0.8c0,0.51-0.26,0.94-0.78,1.29s-1.06,0.51-1.63,0.51
		c-0.95,0-1.63-0.47-2.05-1.42c-0.42-0.95-0.63-2.06-0.63-3.33v-0.45C241.24,50.76,241.25,50.61,241.27,50.45z M240.46,42.02
		c-1.02,0-2.34,1.13-3.97,3.38c-1.63,2.26-2.45,4.17-2.45,5.74c0,0.83,0.17,1.24,0.52,1.24c1.19,0,2.66-1.06,4.4-3.17
		s2.61-3.96,2.61-5.55c0-0.5-0.11-0.91-0.34-1.2C240.99,42.16,240.74,42.02,240.46,42.02z"/>
</g>
<g>
</g>
<g>
</g>
<g>
</g>
<g>
</g>
<g>
</g>
<g>
</g>
<g>
</g>
<g>
</g>
<g>
</g>
<g>
</g>
<g>
</g>
<g>
</g>
<g>
</g>
<g>
</g>
<g>
</g>
</svg>
